<?xml version="1.0" standalone="no"?>
<!DOCTYPE svg PUBLIC "-//W3C//DTD SVG 20010904//EN"
 "http://www.w3.org/TR/2001/REC-SVG-20010904/DTD/svg10.dtd">
<svg version="1.0" xmlns="http://www.w3.org/2000/svg"
 width="512.000000pt" height="512.000000pt" viewBox="0 0 512.000000 512.000000"
 preserveAspectRatio="xMidYMid meet">
<metadata>
Created by potrace 1.14, written by Peter Selinger 2001-2017
</metadata>
<g transform="translate(0.000000,512.000000) scale(0.100000,-0.100000)"
fill="#000000" stroke="none">
<path d="M0 2560 l0 -2560 2560 0 2560 0 0 2560 0 2560 -2560 0 -2560 0 0
-2560z m1330 65 c201 -494 279 -674 290 -672 9 1 115 248 290 675 l275 672
203 0 202 0 0 -930 0 -930 -155 0 -155 0 0 634 c0 597 -3 667 -26 644 -2 -3
-118 -288 -258 -634 l-254 -629 -122 0 -122 0 -169 420 c-321 796 -341 845
-355 845 -12 0 -14 -103 -14 -640 l0 -640 -155 0 -155 0 0 930 0 930 203 0
202 0 275 -675z m2572 643 c267 -72 448 -231 547 -479 53 -135 66 -222 65
-429 -1 -166 -4 -195 -27 -285 -97 -366 -348 -581 -732 -625 -49 -5 -242 -10
-427 -10 l-338 0 0 931 0 931 408 -4 c400 -4 409 -5 504 -30z"/>
<path d="M3320 2370 l0 -640 184 0 c122 0 211 5 263 15 205 39 340 169 399
385 26 93 26 387 1 480 -44 162 -124 270 -247 335 -103 53 -173 65 -402 65
l-198 0 0 -640z"/>
</g>
</svg>
